<svg enable-background="new 0 0 92.25 122.88" viewBox="0 0 92.25 122.88" xmlns="http://www.w3.org/2000/svg"><path clip-rule="evenodd" d="m68.51 106.28c-5.59 6.13-12.1 11.62-19.41 16.06-.9.66-2.12.74-3.12.1-10.8-6.87-19.87-15.12-27-24.09-9.84-12.34-16.03-26.02-18.15-39.2-2.16-13.36-.14-26.22 6.51-36.67 2.62-4.13 5.97-7.89 10.05-11.14 9.38-7.47 20.09-11.42 30.77-11.34 10.28.08 20.43 3.91 29.2 11.92 3.08 2.8 5.67 6.01 7.79 9.49 7.15 11.78 8.69 26.8 5.55 42.02-3.1 15.04-10.8 30.32-22.19 42.82zm-22.39-82.52c12.68 0 22.95 10.28 22.95 22.95 0 12.68-10.28 22.95-22.95 22.95-12.68 0-22.95-10.27-22.95-22.95-.01-12.68 10.27-22.95 22.95-22.95z" fill-rule="evenodd"/></svg>