<svg enable-background="new 0 0 72.93 122.88" viewBox="0 0 72.93 122.88" xmlns="http://www.w3.org/2000/svg"><path clip-rule="evenodd" d="m10.94 0h51.04c6.02 0 10.95 4.93 10.95 10.94v100.99c0 6.02-4.93 10.94-10.94 10.94h-51.04c-6.02.01-10.95-4.92-10.95-10.93v-100.99c0-6.02 4.93-10.95 10.94-10.95zm25.52 100.1c3.91 0 7.09 3.17 7.09 7.09 0 3.91-3.18 7.09-7.09 7.09-3.92 0-7.09-3.17-7.09-7.09 0-3.91 3.18-7.09 7.09-7.09zm-11.29-91.24h22.59c.16 0 .3.14.3.3v3.3c0 .16-.14.3-.3.3h-22.59c-.16 0-.3-.13-.3-.3v-3.3c0-.17.13-.3.3-.3zm-15.52 12.67h53.63c.98 0 1.78.81 1.78 1.78v70.01c0 .97-.81 1.78-1.78 1.78h-53.63c-.97 0-1.78-.8-1.78-1.78v-70.02c0-.97.8-1.77 1.78-1.77z" fill-rule="evenodd"/></svg>