<svg enable-background="new 0 0 122.88 122.88" viewBox="0 0 122.88 122.88" xmlns="http://www.w3.org/2000/svg"><path clip-rule="evenodd" d="m13.001 0h96.878c7.152 0 13.001 5.849 13.001 13.001v96.878c0 7.152-5.849 13.001-13.001 13.001h-96.878c-7.152 0-13.001-5.849-13.001-13.001v-96.878c0-7.152 5.849-13.001 13.001-13.001zm8.195 33.195c6.529 4.49 13.026 9 18.496 14.824-3.148 13.872 9.386 24.945 20.829 31.483 4.461 2.551 6.432 4.35 11.411 3.48l19.623 19.215c-36.907 12.397-78.325-39.609-70.359-69.002zm55.794 44.857 4.304-4.382c1.254-1.261 3.304-1.271 4.558-.048l15.856 15.627c1.264 1.248 1.279 3.291.043 4.557l-4.311 4.369c-1.234 1.271-3.279 1.271-4.55.051l-15.862-15.627c-1.262-1.245-1.279-3.293-.038-4.547zm-51.943-54.043 3.129-3.787c1.333-1.628 3.771-1.871 5.386-.533l16.232 13.378c1.631 1.34 1.869 3.775.533 5.397l-3.125 3.789c-1.335 1.615-3.764 1.851-5.395.52l-16.245-13.383c-1.617-1.333-1.851-3.771-.515-5.381z" fill-rule="evenodd"/></svg>