<svg enable-background="new 0 0 512 512" viewBox="0 0 512 512" xmlns="http://www.w3.org/2000/svg"><path d="m259.34 122.922c-42.072 0-76.34 42.191-76.34 94.25v38.901c0 52.044 34.268 94.231 76.34 94.231 6.105 0 12.101-.9 17.784-2.576-15.121-25.991-37.124-26.872-37.124-26.872v-29.698c33-1.825 58.252 12.495 74.635 29.952 13.045-16.894 21.085-39.803 21.085-65.017l-.081-38.922c0-52.058-34.225-94.249-76.299-94.249z"/><path d="m376 16h-240c-66.274 0-120 53.726-120 120v240c0 66.274 53.726 120 120 120h240c66.274 0 120-53.726 120-120v-240c0-66.274-53.726-120-120-120zm-39.276 348.621c8.959 20.538 38.276 27.914 38.276 27.914v25.632c-46 8.7-67.345-9.532-81.479-35.251-11.287 2.766-23.021 4.258-35.14 4.258-82.389 0-149.142-67.615-149.142-151.072 0-83.417 66.762-151.073 149.15-151.073 82.363 0 149.136 67.656 149.136 151.053 0 54.302-28.305 101.941-70.801 128.539z"/></svg>