<svg enable-background="new 0 0 122.88 91.26" viewBox="0 0 122.88 91.26" xmlns="http://www.w3.org/2000/svg"><path clip-rule="evenodd" d="m14.85 45.46h6.65l2.39 12.65 3.5-12.65h6.6l3.53 12.67 2.41-12.67h6.62l-5 22.68h-6.87l-3.98-14.28-3.95 14.28h-6.86zm-6.53-45.46h106.24c4.58 0 8.32 3.74 8.32 8.32v74.62c0 4.57-3.74 8.32-8.32 8.32h-106.24c-4.58 0-8.32-3.75-8.32-8.32v-74.62c0-4.58 3.74-8.32 8.32-8.32zm109.65 23.29h-112.68v60.46c0 .64.25 1.2.67 1.63.42.42.99.67 1.63.67h108.04c.64 0 1.2-.25 1.63-.67.43-.43.67-.99.67-1.63v-60.46zm-11.33-13.94c2.27 0 4.11 1.84 4.11 4.11s-1.84 4.11-4.11 4.11-4.11-1.84-4.11-4.11 1.85-4.11 4.11-4.11zm-27.84 0c2.27 0 4.11 1.84 4.11 4.11s-1.84 4.11-4.11 4.11-4.11-1.84-4.11-4.11 1.84-4.11 4.11-4.11zm13.92 0c2.27 0 4.11 1.84 4.11 4.11s-1.84 4.11-4.11 4.11-4.11-1.84-4.11-4.11 1.84-4.11 4.11-4.11zm-14.42 36.11h6.65l2.39 12.65 3.5-12.65h6.6l3.53 12.67 2.41-12.67h6.62l-5 22.68h-6.87l-3.98-14.28-3.95 14.28h-6.86zm-31.72 0h6.65l2.39 12.65 3.5-12.65h6.6l3.53 12.67 2.41-12.67h6.62l-5 22.68h-6.87l-3.98-14.28-3.95 14.28h-6.86z" fill-rule="evenodd"/></svg>